<svg xmlns="http://www.w3.org/2000/svg" width="1920" height="1080" viewBox="0 0 1920 1080"><defs><style>.cls-1{fill:none;stroke:#ffdbc6;stroke-miterlimit:10;stroke-width:4px;}.cls-2{fill:#ffdbc6;}</style></defs><g id="Layer_2" data-name="Layer 2"><path class="cls-1" d="M148.51,53.52c-19.37-12.94-44.9-17-66.38-8.11A381.81,381.81,0,0,1-5.25,74.11"/><path class="cls-1" d="M438.19,54.85C430,49.69,416.77,43,400.05,42.09c-23.82-1.34-33.36,10.16-76.93,23.58-13.22,4.07-29.46,9-51.23,11.62-14.93,1.81-36.76,4.29-63.84-.81a179,179,0,0,1-63.51-25.36"/><path class="cls-1" d="M1015.12,54.78C1006.9,49.62,993.7,43,977,42c-23.82-1.33-33.36,10.17-76.93,23.58-13.23,4.07-29.46,9-51.23,11.63C833.89,79,812.06,81.52,785,76.42a179.14,179.14,0,0,1-63-25,78.91,78.91,0,0,0-34.7-10.7c-23.82-1.33-33.36,10.17-76.93,23.58-13.22,4.07-29.46,9-51.23,11.63-14.93,1.81-36.76,4.29-63.84-.81a179.39,179.39,0,0,1-63.51-25.36"/><path class="cls-1" d="M1299.68,54.25c-8.21-5.16-21.42-11.83-38.14-12.76-23.82-1.33-33.36,10.16-76.93,23.58-13.22,4.07-29.46,9-51.23,11.63-14.93,1.81-36.76,4.28-63.84-.81A179.39,179.39,0,0,1,1006,50.53"/><path class="cls-1" d="M1589.37,55.58c-8.21-5.16-21.42-11.83-38.14-12.76-23.82-1.34-33.36,10.16-76.93,23.58-13.22,4.07-29.46,9-51.23,11.63-14.93,1.81-36.76,4.28-63.84-.81a179.39,179.39,0,0,1-63.51-25.36"/><path class="cls-1" d="M1876.61,55.39c-8.22-5.15-21.43-11.82-38.15-12.76-23.81-1.33-33.35,10.17-76.93,23.58-13.22,4.07-29.46,9-51.23,11.63-14.93,1.81-36.76,4.29-63.84-.81A179.39,179.39,0,0,1,1583,51.67"/><path class="cls-1" d="M1958,80.62c-29.82-3.62-61.48-8.73-85.36-27.62"/><rect class="cls-2" x="-22.33" y="81.1" width="1962.62" height="900" transform="translate(1.9 -3.42) rotate(0.2)"/><path class="cls-2" d="M151.06,81a100.69,100.69,0,0,0-48.45-17.36c-6-.55-6.18,7.95-1.33,9.83a106.65,106.65,0,0,1,26.79,15.12l2.21-8.36a88.51,88.51,0,0,1-23.5.75c-6.41-.6-6.37,9.4,0,10a98,98,0,0,0,26.16-1.11c3.49-.59,5.08-6.12,2.2-8.35a123,123,0,0,0-31.2-17.7l-1.33,9.82a90.66,90.66,0,0,1,43.4,16c5.3,3.68,10.31-5,5.05-8.63Z"/><path class="cls-2" d="M123.62,67.12C113.35,68.37,105,60.79,95.1,59.31c-8-1.19-15.75.6-20.47,7.5-1.61,2.35-.3,5.39,1.79,6.84,8.91,6.19,19.44,8.11,30.05,6.3,5.53-.94,4.28-10.18-1.33-9.82s-10.82,3.12-13.33,8.41.74,10.33,6.42,11.06c12.41,1.57,18.23-17.1,19.08-26.41.33-3.68-4.54-6.38-7.53-4.32a40.07,40.07,0,0,0-10.85,11c-3.59,5.36,5.07,10.38,8.63,5a27.34,27.34,0,0,1,7.27-7.39l-7.52-4.31a27.74,27.74,0,0,1-2.77,9.89A23.67,23.67,0,0,1,102,77.25l-1.19,1.41q-2.43,1.09-.78,1.23l.51,3.85a4.86,4.86,0,0,1,4.62-3.61l-1.33-9.82A29.81,29.81,0,0,1,81.47,65l1.79,6.84c3.61-5.27,12.47-2.59,17.15-.67,7.57,3.09,14.75,7,23.21,5.94,6.3-.78,6.38-10.79,0-10Z"/><path class="cls-2" d="M456.08,249.78q3.53-10.17,7.67-20.12l-10.08,23.89a337.54,337.54,0,0,1,27.83-52.33A74.34,74.34,0,0,0,493.37,164a75.67,75.67,0,0,0-1.79-39.87,75.33,75.33,0,0,0-17.89-34A75.71,75.71,0,0,0,445.63,64.4L421.74,54.32a100.77,100.77,0,0,0-53.17,0L344.68,64.4a100.6,100.6,0,0,0-35.87,35.88,335.43,335.43,0,0,0-20.42,36,550.75,550.75,0,0,0-25.17,60.36,75.81,75.81,0,0,0-1.79,39.88,74.47,74.47,0,0,0,11.87,37.18,75.63,75.63,0,0,0,25.76,28.06,75.36,75.36,0,0,0,34,17.9l26.59,3.57a99.64,99.64,0,0,0,50.47-13.65l20.24-15.64a100,100,0,0,0,25.72-44.13Z"/><path class="cls-2" d="M328.19,67.55C289,80.14,248.42,91.48,207.56,97.25l26.59-3.57c-14.83,2-29.77,2.7-44.64.77L216.09,98a112.82,112.82,0,0,1-27-7.21L213,100.9a88.31,88.31,0,0,1-18.32-10.55L214.9,106a170.11,170.11,0,0,1-14.06-12.92A255.09,255.09,0,0,0,167.6,65.94c-24.49-17.12-59.31-23.52-88.15-14.81-9.24,2.79-12.75,3-25.84,10.65C38.56,70.53,34,76.13,24.85,88c-10.09,13.06-13,15.44-18.41,35-4.7,17.18-5.06,37.26.21,54.39a75.25,75.25,0,0,0,17.9,34A75.6,75.6,0,0,0,52.6,237.19a74.46,74.46,0,0,0,37.18,11.86,75.81,75.81,0,0,0,39.88-1.78l23.89-10.08a100.52,100.52,0,0,0,35.87-35.88l10.08-23.89a100.53,100.53,0,0,0,0-53.16l-.26-.86v53.17l.12-.75-10.08,23.89.44-.62L153.85,235l.7-.49-23.88,10.08a6,6,0,0,1,2-.58L106,247.55a8.63,8.63,0,0,1,2.27,0L81.73,244a6.75,6.75,0,0,1,2.11.62L60,234.52a61.89,61.89,0,0,1,8,5L47.68,223.93c5.85,4.55,11,9.88,16.27,15,2.65,2.59,5.37,5.1,8.25,7.44,9,7.37,18.23,15.11,28.23,21.26a87.37,87.37,0,0,0,10.1,5.29c10.8,4.86,21.78,9.91,33.08,13.58,15.22,5,31.85,6.33,47.54,8.14,25.65,3,52.16-1.59,77.33-5.74,17.91-2.95,35.66-7.1,53.26-11.49q30.09-7.51,59.62-17a75.3,75.3,0,0,0,34-17.9,75.45,75.45,0,0,0,25.75-28.06A74.34,74.34,0,0,0,453,177.27a75.77,75.77,0,0,0-1.78-39.87l-10.09-23.89a100.41,100.41,0,0,0-35.87-35.87L381.36,67.55a100.77,100.77,0,0,0-53.17,0Z"/><path class="cls-2" d="M209.12,158.15l14.64-13.39c10.4-9.5,14-25.64,10.29-38.92A40.1,40.1,0,0,0,206.11,77.9c-24.59-9.6-49.4-18.77-73.81-28.84l9.56,4a31.52,31.52,0,0,1-5.35-3l8.1,6.25C137,50,130.18,44.17,120.53,41.18c-12-3.7-24.3-1.72-35.54,3C74.44,48.65,64.3,54,53.76,58.48l9.55-4A397.59,397.59,0,0,1-7,76.56l30.82,73.11a29.81,29.81,0,0,1,2.87-1.47l-9.56,4a42,42,0,0,1,9.28-2.54l-10.63,1.43c9.34-1.18,18.76-.13,28.13.13a209.8,209.8,0,0,0,38.19-2.66,106,106,0,0,0,34.33-11.9c7.92-4.33,14.57-10.65,22.93-14.21l-9.56,4a35.66,35.66,0,0,1,5.82-1.63c9.39-1.77,19.24-10.39,23.91-18.38,5-8.57,7.14-21.21,4-30.82s-9.13-19-18.38-23.91c-10-5.25-19.75-6.12-30.82-4C97.25,51,86.05,63.33,70.87,70.12l9.56-4A84.88,84.88,0,0,1,60,71.57l10.63-1.43c-11.92,1.57-23.93,1.31-35.92.74C16.78,70-.63,71.79-16.61,80.6c-17.46,9.63-23.87,32.17-16.36,50,8,18.89,27.44,27.41,47.19,23.16a398.56,398.56,0,0,0,50.6-14.4c19.12-6.87,37.32-15.6,55.77-24l-9.55,4a27.37,27.37,0,0,1,4.77-1.46l-10.64,1.43a10,10,0,0,1,3.18,0l-10.63-1.42,1.55.44-9.56-4A9.91,9.91,0,0,1,92,115.64l-8.09-6.26c4.63,3.78,8.94,8,14.11,11.07,5.49,3.29,11.73,5.29,17.69,7.62l22.73,8.87L184.85,155,167.2,88.19l-14.65,13.39c-15.49,14.16-15.44,42.4,0,56.57,16.55,15.2,40,15.1,56.57,0Z"/><path class="cls-2" d="M501,84.59,435.29,55.22c-7.74-3.45-15.48-7.35-23.49-10.11a51.5,51.5,0,0,0-32.35.11C366.62,49.84,354.72,57,342.17,62.33l9.56-4a319.17,319.17,0,0,1-69.27,20.16l21.26,77.14L370,133.86,339.12,60.75c-10,6.82-20.07,13.55-31.2,18.44l9.56-4a81.29,81.29,0,0,1-18.59,5.38l10.63-1.43a61.32,61.32,0,0,1-15.61.12l10.64,1.43a55.48,55.48,0,0,1-8.42-2l17.66,66.86,1-.91-8.1,6.25a8.3,8.3,0,0,1,2.39-1.26l-9.56,4,1.32-.32L290.2,154.7a8.16,8.16,0,0,1,2.7,0v-80l-7.36,0c-20.92-.12-41,18.48-40,40,1,21.77,17.58,39.87,40,40l7.36,0c20.93.11,41-18.48,40-40-.46-10.35-3.86-21.08-11.71-28.29C313,78.9,304,75.71,292.9,74.72c-6.58-.59-13.45,1.23-19.43,3.76a52.12,52.12,0,0,0-16.25,10.44c-10.39,9.51-14,25.62-10.29,38.92,3.83,13.91,14.49,23.57,27.94,27.93C312.37,168,349,150.59,379.5,129.83c8.29-5.66,16.06-13.71,18.38-23.91a41.39,41.39,0,0,0-2-26c-7.38-17.5-28.14-29.42-47.19-23.16L282.46,78.46c-9.86,3.24-18.58,9.27-23.91,18.38-5,8.58-7.14,21.21-4,30.83s9.13,19,18.38,23.9c10,5.3,19.67,6,30.82,4a317,317,0,0,0,50.74-13c19-6.63,36.83-15.61,55.09-24l-9.55,4a25.46,25.46,0,0,1,4.38-1.33l-10.64,1.43a12.2,12.2,0,0,1,3.25-.08l-10.64-1.43a30,30,0,0,1,6.62,2l-9.55-4c25.8,11.36,51.48,23,77.22,34.49,10.13,4.52,19.69,7.09,30.82,4,9.28-2.56,19.33-9.73,23.91-18.39,4.9-9.28,7.36-20.52,4-30.82-3-9.29-9.08-19.74-18.38-23.9Z"/><path class="cls-2" d="M527.25,97.18,505.72,83.65l-20.19,74.54,13,.25c19.92.39,36.71-15.52,39.28-34.68a40.06,40.06,0,0,0-28.65-43.89c-23.45-6.81-47.38-12.84-70-22.21-8.9-3.69-22.92-.59-30.82,4-8.3,4.86-16.21,14.37-18.38,23.91-2.34,10.24-1.83,21.73,4,30.82l6.25,8.09a40,40,0,0,0,17.65,10.29c22.6,9.38,46.53,15.4,70,22.21l10.64-78.57-13-.25c-16.86-.33-34.75,12.59-38.57,29.36-4,17.75,2.83,35.41,18.38,45.18l21.53,13.52c17.75,11.15,44.86,4.33,54.73-14.35,10.4-19.68,4.59-42.83-14.35-54.72Z"/><path class="cls-2" d="M664.68,45.75C618.49,68.81,570,94,537.31,135.23c-6.85,8.64-11.71,16.79-11.71,28.28,0,9.81,4.36,21.53,11.71,28.28,7.63,7,17.64,12.2,28.29,11.72,9.88-.44,21.84-3.6,28.28-11.72a203.51,203.51,0,0,1,34.94-34L620.73,164c25.95-19.85,55.2-34.65,84.32-49.19,8.63-4.31,15.89-14.85,18.39-23.91,2.63-9.57,1.44-22.32-4-30.82C707,40.91,684.74,35.73,664.68,45.75Z"/><path class="cls-2" d="M675.05,118c15.2,9.23,31.19,16.56,47.65,23.27,13.67,5.56,28.09,8.87,41.77,14.34l-9.56-4a67,67,0,0,1,14.79,8.59l-8.09-6.25a151.61,151.61,0,0,1,16.55,16.3c14.11,15.53,42.43,15.41,56.57,0,15.23-16.59,15-40,0-56.57a158.24,158.24,0,0,0-15.27-15.26,115.54,115.54,0,0,0-33.73-19.92c-14.54-5.77-29.8-9.36-44.29-15.38l9.55,4a274.47,274.47,0,0,1-35.57-18.19c-17.9-10.87-44.75-4.53-54.72,14.35-10.28,19.44-4.77,43.12,14.35,54.73Z"/><path class="cls-2" d="M784.86,157.86c20.93,0,41-18.4,40-40s-17.57-40-40-40c-20.92,0-41,18.4-40,40s17.58,40,40,40Z"/><path class="cls-2" d="M651.85,53.07c-21,8.46-42,16.88-62.31,26.83A315.14,315.14,0,0,0,532.94,116c-7.5,5.9-11.72,19.24-11.72,28.29,0,9.81,4.36,21.53,11.72,28.28,7.62,7,17.63,12.19,28.28,11.72l10.64-1.43a40,40,0,0,0,17.65-10.29c.91-.73,1.84-1.45,2.77-2.16l-8.1,6.26c22.51-17.1,48-29.4,73.94-40.38l-9.56,4c8.16-3.43,16.36-6.76,24.56-10.07,10-4.05,18.22-8.68,23.9-18.38,5-8.58,7.15-21.21,4-30.83s-9.13-19-18.39-23.9c-8.88-4.69-21.06-8-30.82-4Z"/><path class="cls-2" d="M666.46,127.05c20.92,0,41-18.39,40-40s-17.58-40-40-40c-20.92,0-41,18.4-40,40s17.57,40,40,40Z"/><path class="cls-2" d="M655.79,48.41C619.33,63,583.44,79,548.45,96.88c-8.64,4.41-15.86,14.76-18.38,23.91-2.64,9.57-1.45,22.32,4,30.82,12.29,19.06,34.76,24.55,54.73,14.35q38.45-19.64,78.25-36.42l-9.56,4q9.74-4.09,19.54-8c10-4,18.24-8.7,23.91-18.38,5-8.58,7.14-21.21,4-30.83s-9.13-19-18.38-23.9c-8.9-4.7-21-7.95-30.83-4Z"/><path class="cls-2" d="M593.17,71.73c-9.2,1.3-18.45,2.67-27.36,5.39-14.95,4.57-26.85,11.5-38.93,21.16-7.49,6-11.72,19.16-11.72,28.29,0,9.81,4.36,21.53,11.72,28.28,7.62,7,17.63,12.19,28.28,11.72l10.64-1.43a40,40,0,0,0,17.65-10.29l1.26-1-8.1,6.25A62.19,62.19,0,0,1,589.05,153l-9.56,4c11.17-4.56,23.07-6.43,34.94-8.12,9.2-1.31,19.45-10.77,23.91-18.38,5-8.58,7.14-21.21,4-30.83s-9.13-19-18.38-23.9l-9.56-4a40.16,40.16,0,0,0-21.26,0Z"/><path class="cls-2" d="M619.55,143.46c20.93,0,41-18.4,40-40s-17.57-40-40-40c-20.92,0-41,18.4-40,40s17.58,40,40,40Z"/><path class="cls-2" d="M603.74,147.27c20.92,0,41-18.4,40-40s-17.58-40-40-40c-20.93,0-41,18.4-40,40s17.57,40,40,40Z"/><path class="cls-2" d="M566.46,154.87c20.92,0,41-18.4,40-40s-17.58-40-40-40c-20.92,0-41,18.4-40,40s17.58,40,40,40Z"/><path class="cls-2" d="M946.33,52c-16.58,13.67-34,26.77-49.22,42-16.08,16-29.87,34.64-42,53.78-11.24,17.69-4.27,44.89,14.35,54.72,19.76,10.45,42.73,4.54,54.72-14.35,5.12-8.05,10.53-15.9,16.34-23.47l-6.26,8.09c19.47-25,44.35-44.12,68.67-64.17,7.46-6.15,11.72-19,11.72-28.29,0-9.81-4.36-21.53-11.72-28.28-7.62-7-17.63-12.19-28.28-11.72-11.17.5-19.68,4.63-28.29,11.72Z"/><path class="cls-2" d="M960.83,120.13q61.53,29.61,125.48,53.89c9.15,3.48,22.67.73,30.82-4s16.21-14.37,18.38-23.9c2.33-10.24,1.83-21.74-4-30.82-6-9.23-13.68-14.49-23.91-18.39q-25-9.53-49.71-19.94l9.55,4q-33.45-14.14-66.2-29.91c-9.83-4.73-20-7-30.82-4-9.28,2.56-19.33,9.73-23.91,18.38-4.9,9.29-7.36,20.53-4,30.83,3.06,9.45,9.09,19.43,18.38,23.9Z"/><path class="cls-2" d="M985.9,125.43c20.93,0,41-18.4,40-40s-17.57-40-40-40c-20.92,0-41,18.4-40,40s17.58,40,40,40Z"/><path class="cls-2" d="M1064.8,156.1c20.93,0,41-18.4,40-40s-17.57-40-40-40c-20.92,0-41,18.39-40,40s17.58,40,40,40Z"/><path class="cls-2" d="M1049,151.62c20.92,0,41-18.4,40-40s-17.58-40-40-40c-20.93,0-41,18.4-40,40s17.57,40,40,40Z"/><path class="cls-2" d="M1083.42,158.37c20.92,0,41-18.4,40-40s-17.58-40-40-40c-20.93,0-41,18.4-40,40s17.57,40,40,40Z"/><path class="cls-2" d="M1102,159c20.92,0,41-18.4,40-40s-17.58-40-40-40c-20.92,0-41,18.4-40,40s17.58,40,40,40Z"/><path class="cls-2" d="M1113.89,159.59c20.92,0,41-18.4,40-40s-17.58-40-40-40c-20.92,0-41,18.39-40,40s17.58,40,40,40Z"/><path class="cls-2" d="M960.5,126.45c20.93,0,41-18.4,40-40s-17.57-40-40-40c-20.92,0-41,18.39-40,40s17.58,40,40,40Z"/><path class="cls-2" d="M917.14,60.1q-28.6,15-56.4,31.55a41.51,41.51,0,0,0-18.38,23.9c-2.63,9.58-1.44,22.33,4,30.82,11.68,18.11,35.48,25.78,54.73,14.35q27.79-16.49,56.39-31.54c18.55-9.76,25.7-37.13,14.35-54.73C959.7,55.58,937,49.66,917.14,60.1Z"/><path class="cls-2" d="M951.46,129.18c20.93,0,41-18.4,40-40s-17.57-40-40-40c-20.92,0-41,18.39-40,40s17.58,40,40,40Z"/><path class="cls-2" d="M901.17,146.12c20.92,0,41-18.4,40-40s-17.58-40-40-40c-20.92,0-41,18.4-40,40s17.57,40,40,40Z"/><path class="cls-2" d="M871.8,153.2c20.92,0,41-18.4,40-40s-17.58-40-40-40c-20.93,0-41,18.4-40,40s17.57,40,40,40Z"/><path class="cls-2" d="M847.51,157.53c20.92,0,41-18.4,40-40s-17.57-40-40-40c-20.92,0-41,18.4-40,40s17.58,40,40,40Z"/><path class="cls-2" d="M1139.75,156.94c25.77,1.66,51.89-3.49,76.82-9.62,13-3.2,25.37-6.54,37.61-12.1,6.77-3.07,12.78-7.7,18.31-12.62,3.32-2.94,6.16-6.35,9.64-9.12l-8.09,6.26a27.41,27.41,0,0,1,3.36-2l-9.55,4a17.22,17.22,0,0,1,3.73-1L1261,122.11l1.34-.07c10.57-.53,20.67-4.1,28.29-11.72,6.93-6.93,12.16-18.32,11.71-28.28-.46-10.35-3.86-21.08-11.71-28.29-7.6-7-17.66-12.24-28.29-11.71-14.77.73-26,5.92-37.26,15.3-3.83,3.18-7,7-10.88,10.18l8.09-6.25a46.82,46.82,0,0,1-8.43,4.88l9.55-4c-9.56,4-19.93,6.09-30,8.53a329.56,329.56,0,0,1-33.4,6.57l10.63-1.43a162.67,162.67,0,0,1-30.88,1.16c-9.84-.63-21.48,4.91-28.29,11.71s-12.16,18.32-11.71,28.29c.46,10.34,3.86,21.07,11.71,28.28,8.11,7.44,17.25,11,28.29,11.72Z"/><path class="cls-2" d="M1245,41.44q-43.08,17.88-86.61,34.64c-10,3.85-18.31,8.82-23.91,18.38-5,8.57-7.14,21.21-4,30.82s9.13,19,18.38,23.91c9,4.74,20.94,7.84,30.82,4q43.53-16.75,86.61-34.64c10.06-4.17,18.18-8.59,23.91-18.38,5-8.57,7.14-21.21,4-30.82s-9.13-19-18.38-23.91c-8.83-4.66-21.14-8-30.82-4Z"/><path class="cls-2" d="M1164.82,150.77c20.93,0,41-18.4,40-40s-17.57-40-40-40c-20.92,0-41,18.4-40,40s17.58,40,40,40Z"/><path class="cls-2" d="M1131.1,158.32c20.92,0,41-18.4,40-40s-17.57-40-40-40c-20.92,0-41,18.4-40,40s17.58,40,40,40Z"/><path class="cls-2" d="M1270.68,126.82l1.67.18-10.64-1.43a55.57,55.57,0,0,1,12.76,3.65l-9.55-4c6.73,2.91,13.11,6.55,19.78,9.59a174.05,174.05,0,0,0,31.07,11c16.45,4,33,7.75,49.46,11.61,10.35,2.42,21.52,1.41,30.82-4,8.3-4.86,16.21-14.37,18.38-23.91,2.34-10.24,1.83-21.73-4-30.82-5.53-8.57-13.7-16-23.9-18.38l-35.73-8.37c-11.37-2.67-22.87-5-33.7-9.5l9.55,4c-6.47-2.82-12.6-6.33-19-9.24-13.07-5.92-22.64-8.81-36.92-10.31-9.57-1-21.76,5.19-28.29,11.72-6.94,6.93-12.16,18.32-11.71,28.28.46,10.34,3.86,21.07,11.71,28.28,8.27,7.6,17.16,10.55,28.29,11.72Z"/><path class="cls-2" d="M1269.14,125.83c20.92,0,41-18.39,40-40s-17.58-40-40-40c-20.93,0-41,18.4-40,40s17.57,40,40,40Z"/><path class="cls-2" d="M1507.9,83.79a87.77,87.77,0,0,1,0,15.8L1509.35,89a39.27,39.27,0,0,1-1.88,7.41l4-9.55a29.25,29.25,0,0,1-3.67,6.34l6.26-8.1a28.61,28.61,0,0,1-3.16,3.07l66.85,17.66-.51-1.44L1578.7,115l-.08-1.52-1.43,10.64c1.09-6.87,5-13.8,7.66-20.22,5.21-12.78-1.11-29.74-10.29-38.92-9.52-9.51-25.76-15-38.92-10.29-28,10-54.36,21.6-76.85,41.49-7.4,6.55-11.72,18.66-11.72,28.29,0,9.81,4.36,21.53,11.72,28.28,7.62,7,17.63,12.19,28.28,11.72,11-.49,20-4.4,28.29-11.72,1.67-1.48,3.37-2.91,5.12-4.3l-8.1,6.25c10.25-7.91,21.65-13.91,33.52-19l-9.56,4c6.78-2.85,13.65-5.42,20.57-7.89L1507.7,82.61c-5.82,14.28-12.7,28.55-7.06,44.44,4.76,13.43,13.74,24,27.94,27.94,14.75,4.06,27.66-.93,38.91-10.29,17.59-14.63,21.87-39.35,20.41-60.91-.72-10.68-4-20.55-11.72-28.29-6.93-6.94-18.32-12.16-28.28-11.71-10.35.46-21.08,3.86-28.29,11.71-6.9,7.52-12.42,17.74-11.71,28.29Z"/><path class="cls-2" d="M1538.53,121.08c28.42,21.59,62.71,36.77,97.64,44,10.58,2.18,21.28,1.55,30.82-4,8.3-4.85,16.21-14.37,18.38-23.9,2.33-10.24,1.83-21.73-4-30.82-5.44-8.44-13.74-16.29-23.91-18.39a224.43,224.43,0,0,1-40.9-12.61l9.56,4A220.38,220.38,0,0,1,1578.9,52c-7.69-5.84-22-6.46-30.82-4-9.28,2.56-19.33,9.73-23.9,18.38-4.91,9.29-7.37,20.53-4,30.83l4,9.55a40.19,40.19,0,0,0,14.35,14.35Z"/><path class="cls-2" d="M1674.81,79.43c-12.35.79-24.71,1.45-37-.16l10.63,1.43a77.14,77.14,0,0,1-18.5-5.07l9.56,4c-13-5.85-25.45-12.48-38.69-17.92-10.7-4.4-21.66-8.11-32.6-11.82-9.5-3.21-22.37-.92-30.83,4-8.29,4.86-16.21,14.37-18.38,23.91-5,22.16,6.7,42,27.94,49.2,11.84,4,23.66,8.06,35.19,12.9l-9.55-4c16.39,7,31.78,17.39,49.45,21s35,3.63,52.79,2.48c10.65-.69,20.56-4,28.28-11.72,6.94-6.93,12.16-18.32,11.72-28.28-.47-10.35-3.87-21.08-11.72-28.29-7.53-6.91-17.72-12.39-28.28-11.71Z"/><path class="cls-2" d="M1631.83,155.51c20.93,0,41-18.4,40-40s-17.57-40-40-40c-20.92,0-41,18.39-40,40s17.58,40,40,40Z"/><path class="cls-2" d="M1519.05,52.56q-15.24,7.36-30.81,14l9.55-4a676.56,676.56,0,0,1-83.55,28.91,41.37,41.37,0,0,0-23.91,18.38c-5,8.57-7.14,21.21-4,30.82,6.68,20.65,27.59,33.87,49.21,27.94a727.05,727.05,0,0,0,123.92-46.92c8.61-4.16,15.92-15,18.38-23.9,2.64-9.58,1.45-22.33-4-30.83s-13.71-16-23.91-18.38c-11-2.49-20.69-.86-30.82,4Z"/><path class="cls-2" d="M1469.18,69.37c-42.74,9.27-84,24.36-123.27,43.68-8.62,4.25-15.9,14.9-18.38,23.91-2.64,9.57-1.45,22.32,4,30.82s13.71,16.06,23.91,18.38c10.91,2.49,20.75.93,30.82-4q13.32-6.57,27-12.35l-9.55,4a497,497,0,0,1,86.73-27.31c9.49-2.06,19.1-10.17,23.9-18.38,5-8.58,7.15-21.21,4-30.83-7-21.55-27.27-32.69-49.21-27.93Z"/><path class="cls-2" d="M1428.09,157.08c20.92,0,41-18.4,40-40s-17.57-40-40-40c-20.92,0-41,18.4-40,40s17.58,40,40,40Z"/><path class="cls-2" d="M1411.63,157.79c20.93,0,41-18.4,40-40s-17.57-40-40-40c-20.92,0-41,18.4-40,40s17.58,40,40,40Z"/><path class="cls-2" d="M1499.46,141.23c20.92,0,41-18.4,40-40s-17.58-40-40-40c-20.93,0-41,18.4-40,40s17.57,40,40,40Z"/><path class="cls-2" d="M1520.65,131.33c20.92,0,41-18.39,40-40s-17.57-40-40-40c-20.92,0-41,18.4-40,40s17.58,40,40,40Z"/><path class="cls-2" d="M1534.78,125.25c20.92,0,41-18.4,40-40s-17.58-40-40-40c-20.92,0-41,18.4-40,40s17.57,40,40,40Z"/><path class="cls-2" d="M1952.78,137.22c6.51-13.06,7.9-25.93,2.16-39.54-5.13-12.16-15.84-22.73-29.19-25.47l-21.27,77.15,23.07,3.17V75.39a58,58,0,0,1-10.13,2.47l10.63-1.43a71,71,0,0,1-17.42-.15l10.63,1.43c-27.06-4-50.27-20.46-77.38-24.14a30.28,30.28,0,0,0-16-.72,29.79,29.79,0,0,0-14.87,4.75c-8.3,4.85-16.21,14.37-18.38,23.9-2.34,10.24-1.83,21.74,4,30.83,5.2,8.07,13.9,17,23.9,18.38,18.83,2.56,35.66,11.36,53.3,17.82,22.79,8.35,49.49,12,72.91,4C1965,147,1979,132.14,1978.19,114a47.52,47.52,0,0,0-5.47-20.19c-4-7.57-15.09-17.16-23.9-18.38l-23.07-3.18a30.38,30.38,0,0,0-16-.71,29.73,29.73,0,0,0-14.88,4.75c-8.29,4.85-16.21,14.36-18.38,23.9-2.33,10.24-1.83,21.73,4,30.82,5.44,8.43,13.75,16.3,23.91,18.39l1,.21-9.55-4,.9.5-8.09-6.26.76.72-6.26-8.09.57.88-4-9.56.36,1-1.43-10.63.12,1,1.43-10.63-.16,1,4-9.55-.46.93c-4.83,9.67-7,20.13-4,30.82,2.55,9.28,9.73,19.33,18.38,23.9,9.28,4.91,20.53,7.37,30.82,4,9.54-3.09,19.28-9.11,23.91-18.39Z"/><path class="cls-2" d="M1828.1,44.55l-91.27,34.9c-29.77,11.39-59.49,24.45-90.58,31.84-20.37,4.84-34.43,29.15-27.94,49.2,6.87,21.23,27.38,33.13,49.21,27.94,31.09-7.39,60.81-20.45,90.58-31.84l91.27-34.9c10-3.82,18.32-8.84,23.91-18.38,5-8.58,7.14-21.21,4-30.83s-9.13-19-18.38-23.9c-9-4.75-20.92-7.82-30.83-4Z"/><path class="cls-2" d="M1864.64,135.63c20.92,0,41-18.4,40-40s-17.58-40-40-40c-20.93,0-41,18.4-40,40s17.57,40,40,40Z"/><path class="cls-2" d="M1853.7,127.15c20.92,0,41-18.39,40-40s-17.58-40-40-40c-20.93,0-41,18.4-40,40s17.57,40,40,40Z"/><path class="cls-2" d="M1886.54,146.45c20.92,0,41-18.4,40-40s-17.58-40-40-40c-20.93,0-41,18.39-40,40s17.57,40,40,40Z"/><path class="cls-2" d="M1823.14,127c20.92,0,41-18.39,40-40s-17.58-40-40-40c-20.93,0-41,18.4-40,40s17.57,40,40,40Z"/><path class="cls-2" d="M1827.07,123.22c20.92,0,41-18.39,40-40s-17.58-40-40-40c-20.92,0-41,18.4-40,40s17.58,40,40,40Z"/><path class="cls-2" d="M1803.52,133.88c20.93,0,41-18.4,40-40s-17.57-40-40-40c-20.92,0-41,18.4-40,40s17.58,40,40,40Z"/><path class="cls-2" d="M1776.84,144.52c20.92,0,41-18.4,40-40s-17.57-40-40-40c-20.92,0-41,18.4-40,40s17.58,40,40,40Z"/><path class="cls-2" d="M1757.24,147.52c20.92,0,41-18.4,40-40s-17.58-40-40-40c-20.92,0-41,18.4-40,40s17.57,40,40,40Z"/><path class="cls-2" d="M1785.48,140c20.92,0,41-18.4,40-40s-17.58-40-40-40c-20.93,0-41,18.4-40,40s17.57,40,40,40Z"/><path class="cls-2" d="M1729,155.85c20.92,0,41-18.39,40-40s-17.58-40-40-40c-20.92,0-41,18.4-40,40s17.57,40,40,40Z"/><path class="cls-2" d="M1707.83,158.85c20.92,0,41-18.4,40-40s-17.58-40-40-40c-20.92,0-41,18.39-40,40s17.58,40,40,40Z"/><path class="cls-2" d="M1700.77,159.59c20.93,0,41-18.4,40-40s-17.57-40-40-40c-20.92,0-41,18.4-40,40s17.58,40,40,40Z"/><path class="cls-1" d="M1785.71,1035.54c19.36,12.94,44.89,17,66.38,8.1a381.63,381.63,0,0,1,87.38-28.69"/><path class="cls-1" d="M1496,1034.21c8.21,5.16,21.42,11.82,38.14,12.76,23.82,1.33,33.36-10.17,76.93-23.58,13.23-4.07,29.46-9,51.23-11.63,14.93-1.81,36.76-4.29,63.84.81a179.39,179.39,0,0,1,63.51,25.36"/><path class="cls-1" d="M919.09,1034.27c8.22,5.16,21.43,11.83,38.14,12.76,23.82,1.34,33.36-10.16,76.93-23.58,13.23-4.07,29.46-9,51.24-11.62,14.93-1.81,36.76-4.29,63.83.81a179.11,179.11,0,0,1,63,25,78.69,78.69,0,0,0,34.69,10.7c23.82,1.34,33.36-10.16,76.93-23.58,13.23-4.07,29.46-9,51.24-11.62,14.92-1.82,36.76-4.29,63.83.81a179,179,0,0,1,63.52,25.36"/><path class="cls-1" d="M634.53,1034.81c8.21,5.15,21.42,11.82,38.14,12.76,23.82,1.33,33.36-10.17,76.93-23.58,13.23-4.07,29.46-9,51.23-11.63,14.93-1.81,36.76-4.29,63.84.81a179.39,179.39,0,0,1,63.51,25.36"/><path class="cls-1" d="M344.84,1033.48c8.22,5.16,21.42,11.82,38.14,12.76,23.82,1.33,33.36-10.17,76.93-23.58,13.23-4.07,29.46-9,51.24-11.63,14.92-1.81,36.76-4.29,63.83.81a179.35,179.35,0,0,1,63.52,25.36"/><path class="cls-1" d="M57.61,1033.66c8.21,5.16,21.42,11.83,38.14,12.76,23.82,1.34,33.36-10.16,76.93-23.58,13.22-4.07,29.46-9,51.23-11.62,14.93-1.82,36.76-4.29,63.84.8a179.26,179.26,0,0,1,63.51,25.37"/><path class="cls-1" d="M-23.79,1008.44c29.83,3.61,61.48,8.73,85.36,27.62"/><path class="cls-2" d="M1783.16,1008.08a100.68,100.68,0,0,0,48.45,17.35c6,.56,6.17-7.94,1.33-9.82a106.71,106.71,0,0,1-26.8-15.12l-2.21,8.35a89,89,0,0,1,23.51-.75c6.4.61,6.36-9.39,0-10a98.85,98.85,0,0,0-26.16,1.11c-3.49.6-5.08,6.13-2.21,8.36a123,123,0,0,0,31.21,17.69l1.33-9.82a90.66,90.66,0,0,1-43.41-16c-5.3-3.67-10.3,5-5,8.64Z"/><path class="cls-2" d="M1810.6,1021.94c10.26-1.26,18.65,6.33,28.52,7.81,8,1.19,15.75-.6,20.47-7.5,1.61-2.35.29-5.39-1.8-6.84-8.9-6.19-19.44-8.12-30-6.31-5.53.94-4.28,10.18,1.33,9.82s10.82-3.12,13.34-8.41-.74-10.33-6.43-11c-12.4-1.58-18.23,17.1-19.07,26.41-.34,3.67,4.53,6.38,7.52,4.32a40.24,40.24,0,0,0,10.86-11c3.58-5.37-5.08-10.38-8.64-5.05a27.05,27.05,0,0,1-7.27,7.39l7.53,4.32a27.38,27.38,0,0,1,2.77-9.9,23.91,23.91,0,0,1,2.55-4.16l1.2-1.41c1.61-.73,1.87-1.14.77-1.23l-.5-3.85a4.88,4.88,0,0,1-4.63,3.6l1.33,9.82a29.87,29.87,0,0,1,22.35,5.3l-1.8-6.84c-3.61,5.28-12.47,2.59-17.15.68-7.57-3.09-14.75-7-23.2-5.94-6.31.77-6.39,10.78,0,10Z"/><path class="cls-2" d="M1478.14,839.27q-3.54,10.18-7.68,20.12l10.08-23.89a336.63,336.63,0,0,1-27.83,52.33A74.47,74.47,0,0,0,1440.84,925a89.8,89.8,0,0,0,19.69,73.88,75.47,75.47,0,0,0,28.06,25.76l23.88,10.08a100.77,100.77,0,0,0,53.17,0l23.89-10.08a100.49,100.49,0,0,0,35.87-35.87,333.72,333.72,0,0,0,20.42-36A549,549,0,0,0,1671,892.44a75.67,75.67,0,0,0,1.79-39.87,74.34,74.34,0,0,0-11.87-37.18,111.82,111.82,0,0,0-59.76-46l-26.59-3.57a99.44,99.44,0,0,0-50.47,13.65l-20.24,15.64a99.86,99.86,0,0,0-25.71,44.12Z"/><path class="cls-2" d="M1606,1021.5c39.22-12.59,79.77-23.92,120.63-29.69l-26.58,3.57c14.83-2,29.76-2.71,44.63-.78L1718.12,991a113,113,0,0,1,27,7.2l-23.89-10.08a89,89,0,0,1,18.32,10.55l-20.24-15.63A170.1,170.1,0,0,1,1733.38,996a255.82,255.82,0,0,0,33.23,27.13c24.49,17.11,59.31,23.52,88.15,14.81,9.24-2.79,12.76-3,25.84-10.66,15.05-8.75,19.57-14.34,28.77-26.25,10.09-13.06,13.05-15.43,18.4-35,4.7-17.19,5.07-37.27-.2-54.4a75.4,75.4,0,0,0-17.9-34,75.6,75.6,0,0,0-28.06-25.75A74.47,74.47,0,0,0,1844.43,840a75.81,75.81,0,0,0-39.88,1.79l-23.88,10.08a100.52,100.52,0,0,0-35.88,35.87l-10.08,23.89a100.77,100.77,0,0,0,0,53.17l.26.86V912.49l-.12.74,10.08-23.89-.44.62,35.88-35.87-.71.49,23.89-10.08a6.06,6.06,0,0,1-2,.57l26.59-3.57a8.7,8.7,0,0,1-2.28,0l26.58,3.57a6.55,6.55,0,0,1-2.11-.61l23.89,10.08a61.89,61.89,0,0,1-8-5l20.24,15.64c-5.85-4.55-11-9.88-16.26-15-2.66-2.58-5.38-5.09-8.25-7.44-9-7.37-18.24-15.11-28.23-21.26a91.62,91.62,0,0,0-10.11-5.29c-10.79-4.86-21.77-9.9-33.08-13.58-15.22-4.94-31.85-6.32-47.54-8.13-25.64-3-52.16,1.59-77.32,5.74-17.91,3-35.67,7.09-53.27,11.49q-30.09,7.51-59.62,17a111.74,111.74,0,0,0-59.76,46,74.47,74.47,0,0,0-11.87,37.18,75.71,75.71,0,0,0,1.79,39.88l10.08,23.89a100.57,100.57,0,0,0,35.87,35.87l23.89,10.08a100.77,100.77,0,0,0,53.17,0Z"/><path class="cls-2" d="M1725.1,930.91l-14.65,13.39c-10.39,9.5-14,25.63-10.29,38.92a40.06,40.06,0,0,0,27.94,27.93c24.59,9.6,49.4,18.78,73.81,28.84l-9.56-4a30.81,30.81,0,0,1,5.35,3l-8.09-6.26c7.58,6.31,14.42,12.18,24.07,15.17,12,3.71,24.3,1.73,35.54-3,10.55-4.46,20.69-9.8,31.24-14.29l-9.56,4a398.71,398.71,0,0,1,70.36-22.12l-30.82-73.11a25,25,0,0,1-2.87,1.47l9.56-4a41.31,41.31,0,0,1-9.28,2.55l10.64-1.43c-9.35,1.17-18.76.13-28.13-.13a209.79,209.79,0,0,0-38.19,2.65,106.28,106.28,0,0,0-34.34,11.91c-7.92,4.33-14.56,10.65-22.93,14.21l9.56-4a35.63,35.63,0,0,1-5.82,1.62c-9.39,1.77-19.23,10.4-23.91,18.38-5,8.58-7.14,21.21-4,30.83s9.13,19,18.38,23.9c10,5.26,19.75,6.12,30.83,4,17.06-3.22,28.25-15.59,43.43-22.37l-9.55,4a85.25,85.25,0,0,1,20.46-5.48l-10.63,1.43c11.93-1.57,23.93-1.32,35.92-.75,17.9.86,35.31-.9,51.28-9.71,17.46-9.63,23.87-32.17,16.37-50-8-18.89-27.44-27.41-47.19-23.16a394.37,394.37,0,0,0-50.6,14.4c-19.13,6.87-37.33,15.59-55.78,24l9.56-4a27.64,27.64,0,0,1-4.77,1.46l10.63-1.43a10,10,0,0,1-3.18,0l10.64,1.43-1.55-.44,9.55,4a9.87,9.87,0,0,1-2.31-1.34l8.09,6.25c-4.63-3.78-8.94-8-14.11-11.07-5.48-3.28-11.73-5.29-17.68-7.62l-22.74-8.87L1749.37,934l17.65,66.86,14.65-13.4c15.48-14.15,15.43-42.4,0-56.56-16.56-15.2-40.05-15.1-56.57,0Z"/><path class="cls-2" d="M1433.2,1004.47l65.72,29.36c7.74,3.46,15.49,7.36,23.49,10.11a51.53,51.53,0,0,0,32.36-.1c12.83-4.62,24.72-11.78,37.27-17.12l-9.55,4a318.87,318.87,0,0,1,69.27-20.17l-21.27-77.14-66.22,21.75,30.82,73.11c10-6.83,20.07-13.55,31.2-18.44l-9.56,4a80.91,80.91,0,0,1,18.59-5.37l-10.63,1.43a61.79,61.79,0,0,1,15.61-.13l-10.63-1.43a57.53,57.53,0,0,1,8.41,2l-17.65-66.85-1,.91,8.09-6.26a8.24,8.24,0,0,1-2.38,1.26l9.55-4-1.32.33,10.64-1.43a8,8,0,0,1-2.71,0v80l7.36,0c20.93.12,41-18.48,40-40-1-21.77-17.57-39.88-40-40l-7.36,0c-20.93-.12-41,18.48-40,40,.46,10.34,3.86,21.07,11.72,28.28,8.2,7.54,17.18,10.72,28.28,11.72,6.58.59,13.45-1.24,19.44-3.76a52.72,52.72,0,0,0,16.25-10.44c10.38-9.51,13.94-25.63,10.28-38.92-3.83-13.92-14.49-23.57-27.93-27.94-37.51-12.18-74.17,5.18-104.64,26-8.29,5.65-16.06,13.7-18.38,23.9a41.34,41.34,0,0,0,2,26c7.38,17.49,28.13,29.42,47.18,23.16l66.23-21.75c9.86-3.23,18.57-9.27,23.9-18.38,5-8.57,7.14-21.21,4-30.82s-9.13-19-18.38-23.91c-10-5.3-19.67-5.94-30.82-4a317,317,0,0,0-50.74,13c-19,6.64-36.82,15.62-55.09,24l9.56-4a27,27,0,0,1-4.38,1.33l10.63-1.43a12.13,12.13,0,0,1-3.24.07l10.63,1.43a30.56,30.56,0,0,1-6.62-2l9.56,4c-25.8-11.36-51.49-23-77.23-34.49-10.13-4.53-19.69-7.1-30.82-4-9.28,2.55-19.33,9.73-23.9,18.38-4.91,9.28-7.37,20.53-4,30.82,3,9.29,9.08,19.75,18.39,23.91Z"/><path class="cls-2" d="M1407,991.88l21.53,13.53,20.19-74.54-13-.26c-19.93-.39-36.72,15.53-39.29,34.69a40,40,0,0,0,28.65,43.88c23.46,6.82,47.38,12.84,70,22.22,8.9,3.69,22.92.59,30.82-4,8.3-4.86,16.22-14.37,18.39-23.91,2.33-10.24,1.82-21.73-4-30.82l-6.25-8.1a39.89,39.89,0,0,0-17.65-10.28c-22.6-9.38-46.53-15.4-70-22.22l-10.63,78.57,13,.26c16.85.33,34.75-12.6,38.57-29.37,4-17.74-2.83-35.4-18.38-45.17l-21.54-13.53c-17.74-11.15-44.85-4.33-54.72,14.35-10.4,19.69-4.59,42.83,14.35,54.73Z"/><path class="cls-2" d="M1269.54,1043.31c46.19-23.07,94.65-48.24,127.36-89.48,6.85-8.64,11.71-16.79,11.71-28.28,0-9.82-4.35-21.53-11.71-28.29-7.62-7-17.63-12.19-28.29-11.71-9.88.44-21.84,3.59-28.28,11.71a202.42,202.42,0,0,1-34.94,34l8.1-6.25c-26,19.85-55.2,34.64-84.33,49.19-8.63,4.31-15.89,14.84-18.38,23.9-2.64,9.58-1.45,22.33,4,30.83,12.37,19.19,34.66,24.36,54.73,14.35Z"/><path class="cls-2" d="M1259.17,971.06c-15.2-9.23-31.19-16.57-47.65-23.27-13.68-5.57-28.09-8.88-41.77-14.34l9.55,4a66.8,66.8,0,0,1-14.79-8.58l8.1,6.25a150.9,150.9,0,0,1-16.56-16.31c-14.11-15.52-42.43-15.4-56.57,0-15.23,16.6-15,40,0,56.57a158.34,158.34,0,0,0,15.27,15.27,115.42,115.42,0,0,0,33.73,19.91c14.54,5.78,29.8,9.37,44.29,15.38l-9.55-4a274.54,274.54,0,0,1,35.57,18.2c17.91,10.87,44.75,4.53,54.73-14.35,10.27-19.44,4.76-43.13-14.35-54.73Z"/><path class="cls-2" d="M1149.35,1011.2c20.92,0,41-18.4,40-40s-17.58-40-40-40c-20.92,0-41,18.4-40,40s17.58,40,40,40Z"/><path class="cls-2" d="M1282.36,1036c21-8.46,42-16.89,62.31-26.84a314.24,314.24,0,0,0,56.6-36.06c7.5-5.9,11.72-19.23,11.72-28.28,0-9.81-4.36-21.53-11.72-28.28-7.62-7-17.63-12.2-28.28-11.72l-10.63,1.43a39.91,39.91,0,0,0-17.65,10.29c-.92.72-1.84,1.44-2.77,2.15l8.09-6.25c-22.51,17.1-48,29.4-73.94,40.38l9.56-4c-8.15,3.43-16.35,6.75-24.56,10.07-10,4-18.22,8.67-23.9,18.38-5,8.57-7.14,21.21-4,30.82s9.13,19,18.38,23.91c8.88,4.69,21.06,8,30.82,4Z"/><path class="cls-2" d="M1267.75,1042c20.93,0,41-18.4,40-40s-17.57-40-40-40c-20.92,0-41,18.4-40,40s17.58,40,40,40Z"/><path class="cls-2" d="M1278.42,1040.65c36.46-14.62,72.35-30.61,107.34-48.48,8.64-4.41,15.86-14.76,18.38-23.9,2.64-9.58,1.45-22.33-4-30.83-12.29-19.05-34.76-24.54-54.73-14.35q-38.45,19.63-78.25,36.43l9.56-4q-9.74,4.08-19.54,8c-10,4-18.24,8.7-23.9,18.38-5,8.57-7.15,21.21-4,30.82s9.13,19,18.39,23.91c8.9,4.7,21,8,30.82,4Z"/><path class="cls-2" d="M1341.05,1017.33c9.19-1.31,18.44-2.67,27.35-5.39,14.95-4.57,26.85-11.5,38.93-21.17,7.49-6,11.72-19.16,11.72-28.28,0-9.81-4.36-21.53-11.72-28.29-7.62-7-17.63-12.19-28.28-11.71l-10.63,1.43a40,40,0,0,0-17.65,10.28l-1.26,1,8.09-6.25a62.12,62.12,0,0,1-12.43,7.14l9.55-4c-11.17,4.56-23.06,6.43-34.94,8.12-9.2,1.31-19.45,10.77-23.91,18.38-5,8.57-7.14,21.21-4,30.82s9.13,19,18.38,23.91l9.56,4a40.4,40.4,0,0,0,21.27,0Z"/><path class="cls-2" d="M1314.66,1025.6c20.92,0,41-18.4,40-40s-17.58-40-40-40c-20.92,0-41,18.4-40,40s17.57,40,40,40Z"/><path class="cls-2" d="M1330.48,1021.79c20.92,0,41-18.4,40-40s-17.58-40-40-40c-20.93,0-41,18.4-40,40s17.57,40,40,40Z"/><path class="cls-2" d="M1367.75,1014.19c20.93,0,41-18.4,40-40s-17.57-40-40-40c-20.92,0-41,18.39-40,40s17.58,40,40,40Z"/><path class="cls-2" d="M987.88,1037.07c16.58-13.67,34-26.77,49.23-42,16.07-16.05,29.87-34.64,42-53.78,11.24-17.69,4.26-44.89-14.35-54.73-19.77-10.44-42.73-4.53-54.73,14.35-5.12,8.06-10.53,15.9-16.34,23.48l6.26-8.1c-19.47,25-44.34,44.13-68.67,64.18-7.46,6.15-11.71,19-11.71,28.28,0,9.81,4.35,21.53,11.71,28.29,7.62,7,17.63,12.19,28.29,11.71,11.17-.5,19.68-4.62,28.28-11.71Z"/><path class="cls-2" d="M973.38,968.92Q911.85,939.33,847.91,915c-9.16-3.49-22.68-.73-30.82,4-8.3,4.86-16.21,14.37-18.39,23.91-2.33,10.24-1.82,21.73,4,30.82s13.67,14.49,23.9,18.38q25,9.54,49.72,19.94l-9.56-4q33.47,14.16,66.2,29.91c9.83,4.73,20,7,30.82,4,9.28-2.55,19.34-9.73,23.91-18.38,4.9-9.28,7.36-20.53,4-30.82-3.06-9.46-9.09-19.44-18.38-23.91Z"/><path class="cls-2" d="M948.31,1043.62c20.92,0,41-18.39,40-40s-17.58-40-40-40c-20.92,0-41,18.4-40,40s17.58,40,40,40Z"/><path class="cls-2" d="M869.41,1013c20.92,0,41-18.4,40-40s-17.57-40-40-40c-20.92,0-41,18.4-40,40s17.58,40,40,40Z"/><path class="cls-2" d="M885.2,1017.44c20.92,0,41-18.4,40-40s-17.58-40-40-40c-20.93,0-41,18.39-40,40s17.57,40,40,40Z"/><path class="cls-2" d="M850.8,1010.68c20.92,0,41-18.39,40-40s-17.58-40-40-40c-20.93,0-41,18.4-40,40s17.57,40,40,40Z"/><path class="cls-2" d="M832.17,1010.06c20.93,0,41-18.39,40-40s-17.57-40-40-40c-20.92,0-41,18.4-40,40s17.58,40,40,40Z"/><path class="cls-2" d="M820.32,1009.47c20.93,0,41-18.4,40-40s-17.57-40-40-40c-20.92,0-41,18.4-40,40s17.58,40,40,40Z"/><path class="cls-2" d="M973.71,1042.61c20.92,0,41-18.4,40-40s-17.57-40-40-40c-20.92,0-41,18.4-40,40s17.58,40,40,40Z"/><path class="cls-2" d="M1017.08,1029q28.59-15.06,56.39-31.55a41.53,41.53,0,0,0,18.38-23.91c2.64-9.57,1.45-22.32-4-30.82-11.68-18.11-35.47-25.78-54.73-14.35q-27.79,16.5-56.39,31.55c-18.55,9.76-25.7,37.13-14.35,54.73,12.17,18.87,34.89,24.79,54.73,14.35Z"/><path class="cls-2" d="M982.75,1039.88c20.92,0,41-18.4,40-40s-17.57-40-40-40c-20.92,0-41,18.4-40,40s17.58,40,40,40Z"/><path class="cls-2" d="M1033,1022.93c20.93,0,41-18.39,40-40s-17.57-40-40-40c-20.92,0-41,18.4-40,40s17.58,40,40,40Z"/><path class="cls-2" d="M1062.42,1015.86c20.92,0,41-18.4,40-40s-17.58-40-40-40c-20.92,0-41,18.4-40,40s17.57,40,40,40Z"/><path class="cls-2" d="M1086.7,1011.53c20.93,0,41-18.4,40-40s-17.57-40-40-40c-20.92,0-41,18.39-40,40s17.58,40,40,40Z"/><path class="cls-2" d="M794.47,932.12c-25.78-1.66-51.89,3.48-76.82,9.62-13,3.2-25.37,6.53-37.62,12.09-6.77,3.07-12.77,7.71-18.31,12.62-3.31,2.95-6.16,6.35-9.64,9.12l8.1-6.25a27,27,0,0,1-3.37,2l9.55-4a17.08,17.08,0,0,1-3.73,1L673.27,967l-1.35.07c-10.57.52-20.67,4.1-28.28,11.71-6.94,6.94-12.16,18.32-11.72,28.29.46,10.34,3.86,21.07,11.72,28.28,7.6,7,17.65,12.24,28.28,11.72,14.78-.74,26-5.93,37.26-15.3,3.83-3.19,7-7,10.89-10.19l-8.1,6.26a45.74,45.74,0,0,1,8.44-4.88l-9.56,4c9.56-4,19.93-6.08,30-8.52a327.4,327.4,0,0,1,33.4-6.58l-10.63,1.43a162,162,0,0,1,30.89-1.15c9.83.63,21.48-4.92,28.28-11.72s12.16-18.32,11.72-28.28c-.47-10.35-3.87-21.08-11.72-28.29-8.11-7.44-17.24-11-28.28-11.71Z"/><path class="cls-2" d="M689.19,1047.62q43.08-17.88,86.61-34.64c10-3.85,18.31-8.82,23.9-18.38,5-8.58,7.15-21.21,4-30.83s-9.13-19-18.38-23.9c-9-4.74-20.93-7.84-30.82-4Q711,952.6,667.92,970.47c-10.06,4.18-18.17,8.59-23.9,18.39-5,8.57-7.15,21.21-4,30.82s9.13,19,18.39,23.9c8.83,4.67,21.13,8.05,30.82,4Z"/><path class="cls-2" d="M769.39,1018.28c20.92,0,41-18.39,40-40s-17.58-40-40-40c-20.92,0-41,18.4-40,40s17.57,40,40,40Z"/><path class="cls-2" d="M803.11,1010.73c20.93,0,41-18.39,40-40s-17.57-40-40-40c-20.92,0-41,18.4-40,40s17.58,40,40,40Z"/><path class="cls-2" d="M663.54,962.24l-1.67-.18,10.63,1.43a55.73,55.73,0,0,1-12.76-3.66l9.56,4c-6.74-2.91-13.11-6.55-19.79-9.58a174.05,174.05,0,0,0-31.07-11c-16.44-4-33-7.75-49.46-11.61-10.34-2.43-21.52-1.41-30.82,4-8.29,4.85-16.21,14.37-18.38,23.9-2.33,10.24-1.83,21.74,4,30.83,5.53,8.57,13.7,16,23.91,18.38l35.72,8.37c11.37,2.66,22.87,5,33.71,9.49l-9.56-4c6.47,2.82,12.6,6.34,19,9.25,13.06,5.91,22.63,8.8,36.92,10.31,9.56,1,21.75-5.19,28.28-11.72,6.94-6.94,12.16-18.32,11.72-28.28-.47-10.35-3.86-21.08-11.72-28.29-8.27-7.59-17.16-10.54-28.28-11.71Z"/><path class="cls-2" d="M665.08,1043.22c20.92,0,41-18.4,40-40s-17.58-40-40-40c-20.93,0-41,18.4-40,40s17.57,40,40,40Z"/><path class="cls-2" d="M426.31,1005.27a88.81,88.81,0,0,1,0-15.81l-1.42,10.64a39.06,39.06,0,0,1,1.87-7.41l-4,9.55a29,29,0,0,1,3.67-6.34l-6.25,8.09a27,27,0,0,1,3.16-3.07l-66.86-17.65.51,1.44-1.43-10.64.08,1.52L357,965c-1.09,6.87-5,13.8-7.65,20.22-5.21,12.78,1.11,29.74,10.28,38.92,9.52,9.51,25.76,15,38.92,10.28,28-10,54.37-21.59,76.85-41.49,7.4-6.54,11.72-18.66,11.72-28.28,0-9.81-4.36-21.53-11.72-28.29-7.62-7-17.63-12.19-28.28-11.71-11,.49-20,4.4-28.28,11.71-1.68,1.48-3.38,2.91-5.12,4.31l8.09-6.26c-10.25,7.92-21.65,13.91-33.52,19l9.56-4c-6.77,2.85-13.65,5.43-20.57,7.9l49.21,49.2c5.82-14.27,12.7-28.54,7.06-44.44-4.76-13.43-13.73-24-27.93-27.93C390.89,930,378,935,366.72,944.35c-17.59,14.63-21.86,39.36-20.41,60.92.73,10.68,4,20.54,11.72,28.28,6.94,6.94,18.32,12.17,28.28,11.72,10.35-.46,21.08-3.86,28.29-11.72,6.9-7.51,12.43-17.73,11.71-28.28Z"/><path class="cls-2" d="M395.69,968c-28.43-21.59-62.72-36.77-97.64-44-10.58-2.18-21.29-1.55-30.83,4-8.29,4.86-16.21,14.37-18.38,23.91-2.33,10.24-1.83,21.73,4,30.82,5.44,8.43,13.75,16.28,23.91,18.38a224.19,224.19,0,0,1,40.9,12.61l-9.56-4a220.52,220.52,0,0,1,47.19,27.33c7.69,5.85,22,6.47,30.82,4,9.28-2.55,19.33-9.72,23.91-18.38,4.9-9.28,7.36-20.53,4-30.82l-4-9.56A40.27,40.27,0,0,0,395.69,968Z"/><path class="cls-2" d="M259.41,1009.63c12.34-.8,24.7-1.46,37,.16l-10.64-1.43a77.45,77.45,0,0,1,18.5,5.06l-9.56-4c13,5.85,25.45,12.47,38.69,17.92,10.7,4.4,21.66,8.11,32.61,11.81,9.49,3.22,22.36.92,30.82-4,8.3-4.85,16.21-14.37,18.38-23.9,5-22.16-6.7-42-27.94-49.21-11.83-4-23.66-8.06-35.19-12.89l9.56,4c-16.4-7-31.79-17.39-49.45-21s-35-3.62-52.79-2.47c-10.66.68-20.57,4-28.29,11.71-6.93,6.94-12.16,18.32-11.71,28.29.46,10.34,3.86,21.07,11.71,28.28,7.54,6.92,17.73,12.4,28.29,11.72Z"/><path class="cls-2" d="M302.38,1013.55c20.92,0,41-18.4,40-40s-17.58-40-40-40c-20.92,0-41,18.4-40,40s17.58,40,40,40Z"/><path class="cls-2" d="M415.16,1036.49q15.24-7.37,30.82-14l-9.56,4A674.4,674.4,0,0,1,520,997.64a41.41,41.41,0,0,0,23.91-18.38c5-8.58,7.14-21.21,4-30.83-6.68-20.64-27.58-33.86-49.2-27.93a726.7,726.7,0,0,0-123.92,46.91c-8.62,4.17-15.92,15-18.39,23.91-2.63,9.57-1.44,22.32,4,30.82s13.7,16.06,23.9,18.38c11,2.5,20.7.86,30.82-4Z"/><path class="cls-2" d="M465,1019.69c42.75-9.27,84.06-24.36,123.27-43.68,8.63-4.25,15.9-14.9,18.39-23.91,2.63-9.57,1.44-22.32-4-30.82s-13.7-16.06-23.9-18.38c-10.92-2.49-20.76-.93-30.82,4q-13.32,6.55-27,12.34l9.55-4a497.75,497.75,0,0,1-86.72,27.31c-9.5,2.06-19.11,10.17-23.91,18.38-5,8.57-7.14,21.21-4,30.82,7,21.56,27.27,32.7,49.2,27.94Z"/><path class="cls-2" d="M506.12,1012c20.93,0,41-18.4,40-40s-17.57-40-40-40c-20.92,0-41,18.39-40,40s17.58,40,40,40Z"/><path class="cls-2" d="M522.58,1011.27c20.92,0,41-18.4,40-40s-17.57-40-40-40c-20.92,0-41,18.4-40,40s17.58,40,40,40Z"/><path class="cls-2" d="M434.76,1027.83c20.92,0,41-18.4,40-40s-17.58-40-40-40c-20.93,0-41,18.4-40,40s17.57,40,40,40Z"/><path class="cls-2" d="M413.56,1037.72c20.92,0,41-18.4,40-40s-17.57-40-40-40c-20.92,0-41,18.4-40,40s17.58,40,40,40Z"/><path class="cls-2" d="M399.43,1043.81c20.93,0,41-18.4,40-40s-17.57-40-40-40c-20.92,0-41,18.4-40,40s17.58,40,40,40Z"/><path class="cls-2" d="M-18.56,951.83c-6.52,13.07-7.91,25.94-2.16,39.55,5.13,12.15,15.83,22.73,29.19,25.46L29.73,939.7,6.66,936.52v77.14a59.76,59.76,0,0,1,10.14-2.47l-10.64,1.43a71.59,71.59,0,0,1,17.43.16L13,1011.35c27.06,4,50.28,20.46,77.38,24.14a30.28,30.28,0,0,0,16,.71,29.81,29.81,0,0,0,14.88-4.74c8.29-4.86,16.21-14.37,18.38-23.91,2.33-10.24,1.83-21.73-4-30.82-5.21-8.08-13.91-17-23.91-18.38C92.77,955.79,75.94,947,58.3,940.52c-22.79-8.34-49.48-12-72.91-4C-30.76,942-44.79,956.92-44,975.09a47.47,47.47,0,0,0,5.46,20.19c4,7.58,15.1,17.17,23.9,18.38l23.08,3.18a30.27,30.27,0,0,0,16,.72,29.79,29.79,0,0,0,14.87-4.75c8.3-4.86,16.21-14.37,18.38-23.91,2.33-10.23,1.83-21.73-4-30.82-5.43-8.42-13.74-16.3-23.91-18.38l-1-.21,9.56,4-.91-.49,8.09,6.25-.75-.72,6.25,8.1-.57-.88,4,9.55-.36-1L55.47,975l-.12-1-1.42,10.64.15-1-4,9.56.46-.93c4.83-9.68,7-20.13,4-30.82-2.56-9.28-9.73-19.34-18.39-23.91-9.28-4.9-20.53-7.36-30.82-4-9.54,3.09-19.28,9.1-23.9,18.38Z"/><path class="cls-2" d="M106.11,1044.51l91.27-34.9c29.78-11.39,59.49-24.45,90.58-31.84,20.37-4.85,34.43-29.16,27.94-49.21-6.87-21.22-27.38-33.13-49.21-27.94-31.09,7.4-60.8,20.46-90.58,31.84L84.84,967.37c-10,3.82-18.32,8.84-23.9,18.38-5,8.57-7.15,21.21-4,30.82s9.13,19,18.39,23.91c9,4.75,20.91,7.82,30.82,4Z"/><path class="cls-2" d="M69.58,1033.43c20.92,0,41-18.4,40-40s-17.58-40-40-40c-20.93,0-41,18.39-40,40s17.57,40,40,40Z"/><path class="cls-2" d="M80.52,1041.9c20.92,0,41-18.4,40-40s-17.58-40-40-40c-20.93,0-41,18.4-40,40s17.57,40,40,40Z"/><path class="cls-2" d="M47.68,1022.61c20.92,0,41-18.4,40-40s-17.58-40-40-40c-20.93,0-41,18.4-40,40s17.57,40,40,40Z"/><path class="cls-2" d="M111.08,1042c20.92,0,41-18.4,40-40s-17.58-40-40-40c-20.93,0-41,18.4-40,40s17.57,40,40,40Z"/><path class="cls-2" d="M107.14,1045.83c20.93,0,41-18.4,40-40s-17.57-40-40-40c-20.92,0-41,18.4-40,40s17.58,40,40,40Z"/><path class="cls-2" d="M130.69,1035.18c20.92,0,41-18.4,40-40s-17.57-40-40-40c-20.92,0-41,18.4-40,40s17.58,40,40,40Z"/><path class="cls-2" d="M157.37,1024.54c20.93,0,41-18.4,40-40s-17.57-40-40-40c-20.92,0-41,18.39-40,40s17.58,40,40,40Z"/><path class="cls-2" d="M177,1021.54c20.93,0,41-18.4,40-40s-17.57-40-40-40c-20.92,0-41,18.4-40,40s17.58,40,40,40Z"/><path class="cls-2" d="M148.74,1029.11c20.92,0,41-18.4,40-40s-17.58-40-40-40c-20.93,0-41,18.4-40,40s17.57,40,40,40Z"/><path class="cls-2" d="M205.21,1013.2c20.93,0,41-18.4,40-40s-17.57-40-40-40c-20.92,0-41,18.4-40,40s17.58,40,40,40Z"/><path class="cls-2" d="M226.38,1010.21c20.93,0,41-18.4,40-40s-17.57-40-40-40c-20.92,0-41,18.4-40,40s17.58,40,40,40Z"/><path class="cls-2" d="M233.44,1009.47c20.92,0,41-18.4,40-40s-17.58-40-40-40c-20.92,0-41,18.4-40,40s17.57,40,40,40Z"/><path class="cls-2" d="M1125,987.87a51.64,51.64,0,0,0-20,1.77c-4.85,1.38-4.66,8.16,0,9.64a183.33,183.33,0,0,0,20.66,5.26v-9.65l-18.9,3.08c-6,1-3.75,9.22,1.33,9.82a145.28,145.28,0,0,0,25.28.79v-10a301.8,301.8,0,0,0-33.1,3.92c-6.33,1.1-3.64,10.74,2.66,9.64a280.36,280.36,0,0,1,30.44-3.56c6.39-.39,6.45-10.35,0-10a145.25,145.25,0,0,1-25.28-.79l1.33,9.82,18.89-3.07c4.85-.79,4.71-8.74,0-9.65a183.67,183.67,0,0,1-20.65-5.25v9.64a44,44,0,0,1,17.31-1.41c6.39.69,6.34-9.31,0-10Z"/><path class="cls-2" d="M1403.75,989.86a92,92,0,0,0-20.81,1.93c-5.74,1.19-4.08,9.56,1.33,9.83a232.38,232.38,0,0,1,30.46,3.46v-9.64a98.76,98.76,0,0,1-25.29,5c-6.37.4-6.5,9.91,0,10l35.45.5c6.43.1,6.44-9.9,0-10l-35.45-.5v10a109.23,109.23,0,0,0,28-5.38c4.28-1.43,5.21-8.7,0-9.64a254.06,254.06,0,0,0-33.12-3.82l1.33,9.82a79.51,79.51,0,0,1,18.15-1.58c6.43.14,6.43-9.86,0-10Z"/><path class="cls-2" d="M1728.19,993.2l-36.92-.13c-6.44,0-6.44,9.95,0,10l21.58.15c6.5,0,6.35-9.54,0-10a130.67,130.67,0,0,0-39.42,3.18c-5.5,1.29-4.3,9.92,1.33,9.83,16-.27,32.09-.44,47.58,4.14l2.66-9.64a245.22,245.22,0,0,0-57.43-1.23l1.33,9.82,15-4c6.21-1.65,3.57-11.29-2.66-9.65l-15,4c-5.28,1.4-4.42,10.39,1.33,9.82a234.45,234.45,0,0,1,54.77.87c6.18.84,9-7.76,2.66-9.64-16.33-4.83-33.37-4.78-50.24-4.5l1.33,9.82a121.49,121.49,0,0,1,36.76-2.83v-10l-21.58-.15v10l36.92.13c6.43,0,6.44-10,0-10Z"/></g></svg>